<mxfile host="app.diagrams.net" modified="2020-04-10T12:36:35.951Z" agent="5.0 (Windows NT 10.0; Win64; x64) AppleWebKit/537.36 (KHTML, like Gecko) Chrome/80.0.3987.163 Safari/537.36" etag="osOQeMGuLRiAaNhmXfCV" version="12.9.10" type="github">
  <diagram id="cH-F4IgIYANjRXPfwng8" name="Page-1">
    <mxGraphModel dx="1422" dy="745" grid="1" gridSize="10" guides="1" tooltips="1" connect="1" arrows="1" fold="1" page="1" pageScale="1" pageWidth="827" pageHeight="1169" math="0" shadow="0">
      <root>
        <mxCell id="0" />
        <mxCell id="1" parent="0" />
        <mxCell id="BguymTqi-EYLwPpGwwXe-1" value="" style="rounded=1;whiteSpace=wrap;html=1;fillColor=#dae8fc;strokeColor=#6c8ebf;fontSize=16;" vertex="1" parent="1">
          <mxGeometry x="181" y="160" width="120" height="360" as="geometry" />
        </mxCell>
        <mxCell id="BguymTqi-EYLwPpGwwXe-30" style="edgeStyle=orthogonalEdgeStyle;rounded=0;orthogonalLoop=1;jettySize=auto;html=1;entryX=0.5;entryY=0;entryDx=0;entryDy=0;strokeWidth=5;fontSize=16;" edge="1" parent="1" source="BguymTqi-EYLwPpGwwXe-2" target="BguymTqi-EYLwPpGwwXe-3">
          <mxGeometry relative="1" as="geometry" />
        </mxCell>
        <mxCell id="BguymTqi-EYLwPpGwwXe-2" value="上层接口Rpc接口" style="rounded=0;whiteSpace=wrap;html=1;fontSize=16;" vertex="1" parent="1">
          <mxGeometry x="180" y="220" width="120" height="40" as="geometry" />
        </mxCell>
        <mxCell id="BguymTqi-EYLwPpGwwXe-31" style="edgeStyle=orthogonalEdgeStyle;rounded=0;orthogonalLoop=1;jettySize=auto;html=1;entryX=0.5;entryY=0;entryDx=0;entryDy=0;strokeWidth=5;fontSize=16;" edge="1" parent="1" source="BguymTqi-EYLwPpGwwXe-3" target="BguymTqi-EYLwPpGwwXe-5">
          <mxGeometry relative="1" as="geometry" />
        </mxCell>
        <mxCell id="BguymTqi-EYLwPpGwwXe-3" value="序列化" style="rounded=0;whiteSpace=wrap;html=1;fontSize=16;" vertex="1" parent="1">
          <mxGeometry x="181" y="290" width="120" height="40" as="geometry" />
        </mxCell>
        <mxCell id="BguymTqi-EYLwPpGwwXe-35" value="" style="edgeStyle=orthogonalEdgeStyle;rounded=0;orthogonalLoop=1;jettySize=auto;html=1;strokeWidth=5;fontSize=16;" edge="1" parent="1" source="BguymTqi-EYLwPpGwwXe-5" target="BguymTqi-EYLwPpGwwXe-7">
          <mxGeometry relative="1" as="geometry" />
        </mxCell>
        <mxCell id="BguymTqi-EYLwPpGwwXe-5" value="丢给网络模块" style="rounded=0;whiteSpace=wrap;html=1;fontSize=16;" vertex="1" parent="1">
          <mxGeometry x="181" y="370" width="120" height="40" as="geometry" />
        </mxCell>
        <mxCell id="BguymTqi-EYLwPpGwwXe-7" value="网络发送" style="rounded=0;whiteSpace=wrap;html=1;fontSize=16;" vertex="1" parent="1">
          <mxGeometry x="181" y="450" width="120" height="40" as="geometry" />
        </mxCell>
        <mxCell id="BguymTqi-EYLwPpGwwXe-9" value="Rpc 调用" style="text;html=1;strokeColor=none;fillColor=none;align=center;verticalAlign=middle;whiteSpace=wrap;rounded=0;fontSize=16;" vertex="1" parent="1">
          <mxGeometry x="205" y="180" width="70" height="20" as="geometry" />
        </mxCell>
        <mxCell id="BguymTqi-EYLwPpGwwXe-12" value="" style="endArrow=classic;startArrow=classic;html=1;strokeWidth=5;fontSize=16;fillColor=#f8cecc;strokeColor=#b85450;" edge="1" parent="1">
          <mxGeometry width="50" height="50" relative="1" as="geometry">
            <mxPoint x="301" y="470" as="sourcePoint" />
            <mxPoint x="451" y="470" as="targetPoint" />
          </mxGeometry>
        </mxCell>
        <mxCell id="BguymTqi-EYLwPpGwwXe-13" value="" style="rounded=1;whiteSpace=wrap;html=1;fillColor=#dae8fc;strokeColor=#6c8ebf;fontSize=16;" vertex="1" parent="1">
          <mxGeometry x="452" y="160" width="120" height="360" as="geometry" />
        </mxCell>
        <mxCell id="BguymTqi-EYLwPpGwwXe-15" value="上层Rpc分发" style="rounded=0;whiteSpace=wrap;html=1;fontSize=16;" vertex="1" parent="1">
          <mxGeometry x="451" y="220" width="120" height="40" as="geometry" />
        </mxCell>
        <mxCell id="BguymTqi-EYLwPpGwwXe-24" style="edgeStyle=orthogonalEdgeStyle;rounded=0;orthogonalLoop=1;jettySize=auto;html=1;entryX=0.5;entryY=1;entryDx=0;entryDy=0;strokeWidth=5;fontSize=16;" edge="1" parent="1" source="BguymTqi-EYLwPpGwwXe-17" target="BguymTqi-EYLwPpGwwXe-15">
          <mxGeometry relative="1" as="geometry" />
        </mxCell>
        <mxCell id="BguymTqi-EYLwPpGwwXe-17" value="Rpc反序列化" style="rounded=0;whiteSpace=wrap;html=1;fontSize=16;" vertex="1" parent="1">
          <mxGeometry x="452" y="290" width="120" height="40" as="geometry" />
        </mxCell>
        <mxCell id="BguymTqi-EYLwPpGwwXe-23" style="edgeStyle=orthogonalEdgeStyle;rounded=0;orthogonalLoop=1;jettySize=auto;html=1;entryX=0.5;entryY=1;entryDx=0;entryDy=0;strokeWidth=5;fontSize=16;" edge="1" parent="1" source="BguymTqi-EYLwPpGwwXe-19" target="BguymTqi-EYLwPpGwwXe-17">
          <mxGeometry relative="1" as="geometry" />
        </mxCell>
        <mxCell id="BguymTqi-EYLwPpGwwXe-19" value="网络模块解包" style="rounded=0;whiteSpace=wrap;html=1;fontSize=16;" vertex="1" parent="1">
          <mxGeometry x="452" y="360" width="120" height="40" as="geometry" />
        </mxCell>
        <mxCell id="BguymTqi-EYLwPpGwwXe-22" style="edgeStyle=orthogonalEdgeStyle;rounded=0;orthogonalLoop=1;jettySize=auto;html=1;strokeWidth=5;fontSize=16;" edge="1" parent="1" source="BguymTqi-EYLwPpGwwXe-20" target="BguymTqi-EYLwPpGwwXe-19">
          <mxGeometry relative="1" as="geometry" />
        </mxCell>
        <mxCell id="BguymTqi-EYLwPpGwwXe-20" value="网络接收" style="rounded=0;whiteSpace=wrap;html=1;fontSize=16;" vertex="1" parent="1">
          <mxGeometry x="451" y="440" width="120" height="40" as="geometry" />
        </mxCell>
        <mxCell id="BguymTqi-EYLwPpGwwXe-21" value="Rpc 接收" style="text;html=1;strokeColor=none;fillColor=none;align=center;verticalAlign=middle;whiteSpace=wrap;rounded=0;fontSize=16;" vertex="1" parent="1">
          <mxGeometry x="476" y="180" width="70" height="20" as="geometry" />
        </mxCell>
      </root>
    </mxGraphModel>
  </diagram>
</mxfile>
